<svg width="40" height="40" viewBox="0 0 40 40" fill="none" xmlns="http://www.w3.org/2000/svg">
<circle cx="20" cy="20" r="20" fill="#FFB10F"/>
<path fill-rule="evenodd" clip-rule="evenodd" d="M20.0006 23.7787C19.2322 23.7787 18.6984 24.4205 18.6984 25.143C18.6984 25.8754 19.277 26.5072 20.0006 26.5072C20.7644 26.5072 21.2964 25.8727 21.3028 25.156C21.3457 24.3927 20.7427 23.7787 20.0006 23.7787Z" fill="#FEFEFE"/>
<path fill-rule="evenodd" clip-rule="evenodd" d="M20.0006 22.9715C20.6068 22.9715 20.9904 22.4627 20.9904 21.9287V17.143C20.9904 16.5927 20.557 16.1001 20.0006 16.1001C19.4724 16.1001 18.9757 16.5655 18.9757 17.143V21.9287C18.9757 22.4924 19.4254 22.9715 20.0006 22.9715Z" fill="#FEFEFE"/>
<path fill-rule="evenodd" clip-rule="evenodd" d="M9.93231 28.0633C9.48271 27.2516 9.4893 26.2839 9.95203 25.4802L17.7601 11.8991C18.2291 11.0883 19.0678 10.6001 20.0012 10.6001C20.9333 10.6015 21.7762 11.0896 22.2418 11.9011L30.0453 25.4778C30.5095 26.282 30.519 27.2511 30.0682 28.0625C29.6058 28.8963 28.7606 29.4001 27.8121 29.4001H12.193C11.2434 29.4001 10.3974 28.898 9.9328 28.0642L9.93231 28.0633ZM28.2805 26.9517L28.2458 26.9967L28.225 27.0496C28.1623 27.2089 28.0204 27.3144 27.777 27.3144H12.193C11.9894 27.3144 11.8163 27.2121 11.7195 27.0383C11.6279 26.8729 11.6297 26.6948 11.7226 26.5331L19.5314 12.9531C19.6268 12.7865 19.7975 12.6859 20.0002 12.6858C20.2024 12.6863 20.3733 12.787 20.4686 12.9529L28.2665 26.5163C28.3624 26.7334 28.3411 26.8731 28.2805 26.9517Z" fill="#FEFEFE"/>
</svg>
