<svg width="40" height="40" viewBox="0 0 40 40" fill="none" xmlns="http://www.w3.org/2000/svg">
<path d="M22.5766 10H17.5C15.0184 10 13 11.9262 13 14.2944C13 15.0849 13.6708 15.6857 14.5 15.6857C15.3292 15.6857 16 15.0451 16 14.2944C16 13.5053 16.6722 12.863 17.5 12.863H22.5766C23.9125 12.863 25 13.9003 25 15.1797C25 16.0619 24.4858 16.8559 23.5703 17.297L18.9906 19.8589C18.4891 20.1183 18.25 20.588 18.25 21.0935V22.8829C18.25 23.6733 18.9208 24.3139 19.75 24.3139C20.5792 24.3139 21.25 23.6733 21.25 22.8829V21.9121L25 19.8097C26.8502 18.9262 28 17.1516 28 15.1797C28 12.3235 25.5672 10 22.5766 10ZM19.75 26.4616C18.7145 26.4616 17.875 27.2627 17.875 28.2509C17.875 29.2391 18.7145 30 19.75 30C20.7855 30 21.625 29.1993 21.625 28.2509C21.625 27.3026 20.7859 26.4616 19.75 26.4616Z" fill="#FEFEFE"/>
</svg>
