<svg width="48" height="48" viewBox="0 0 48 48" fill="none" xmlns="http://www.w3.org/2000/svg">
<path d="M38.0518 16.2022C38.1905 16.4755 38.3152 16.8213 38.3694 16.962C39.264 19.3039 41.0269 20.894 43.003 22.2971C43.6865 22.7836 44.4584 23.1434 45.0675 23.7365C46.6837 25.3125 47.54 27.2744 47.8496 29.4696C48.4065 33.4257 47.4194 37.0039 44.9911 40.1599C43.2804 42.3832 41.047 43.9472 38.482 45.0729C36.3853 45.9936 34.2364 46.7213 31.983 47.1213C30.8271 47.3264 29.6692 47.4892 28.4892 47.5314C27.5766 47.5636 26.674 47.5756 25.7593 47.5435C23.4315 47.4611 21.166 47.061 18.9326 46.4439C16.7274 45.8348 14.5966 45.0126 12.5803 43.9331C10.8053 42.9803 9.09639 41.7007 7.22972 39.834C5.36305 37.9673 4.38266 36.5134 3.31122 34.1313C2.42069 32.1532 1.70304 30.1088 1.18239 27.9981C0.772309 26.3337 0.458715 24.6551 0.23156 22.9525C-0.0156969 21.087 -0.0398195 19.2175 0.0425995 17.354C0.199397 13.7839 0.96529 10.3444 2.8951 7.28483C4.24195 5.14997 6.11145 3.50762 8.33274 2.28943C10.4374 1.13356 12.7009 0.42998 15.075 0.160611C17.2119 -0.0806156 19.3568 -0.0444317 21.5017 0.230968C23.9381 0.542552 26.3021 1.12552 28.6239 1.89744C30.6944 2.58493 32.6664 3.49154 34.3329 4.93086C35.933 6.31389 36.7311 8.14319 37.0447 10.1976C37.2015 11.2269 37.3925 12.2561 37.3905 13.3034C36.6547 13.0843 35.9029 13.213 35.1571 13.2029C34.8254 13.1989 34.6887 13.1145 34.6003 12.7808C33.758 9.59457 31.1548 7.58636 27.862 7.57631C25.2749 7.56827 22.6857 7.57631 20.0986 7.57229C19.5699 7.57229 19.0492 7.62455 18.5386 7.74315C15.67 8.40854 13.696 10.5675 13.2337 13.5849C13.1814 13.9326 13.0789 14.011 12.7572 13.9929C12.2909 13.9668 11.8205 13.9829 11.3521 13.9869C10.4716 13.9949 9.98514 14.4432 9.9771 15.3297C9.95901 17.3741 9.95901 19.4165 9.9771 21.4609C9.98514 22.3353 10.4354 22.7836 11.2978 22.7997C12.2909 22.8198 13.2859 22.8198 14.279 22.7997C15.1494 22.7836 15.5756 22.3454 15.5977 21.4669C15.6238 20.4176 15.6419 19.3682 15.6459 18.3189C15.6499 16.95 15.6077 15.581 15.6359 14.214C15.6801 11.9666 17.5054 10.077 19.7387 10.0388C22.6073 9.99058 25.4759 9.98857 28.3445 10.0428C30.5497 10.0851 32.3689 12.0973 32.3569 14.3005C32.3448 16.4193 32.3006 18.536 32.3951 20.6548C32.4353 21.5654 32.8514 21.9835 33.762 21.9916C34.6425 21.9996 35.525 21.9936 36.4054 21.9916C37.6377 21.9916 38.0176 21.6117 38.0257 20.3874C38.0337 19.1511 38.0398 17.4384 38.0518 16.2022ZM18.9366 24.9466C16.2711 25.8633 14.1242 27.7308 12.8115 30.1692C11.6275 32.3683 11.4707 34.7324 11.6114 37.1486C11.7401 39.3699 13.6397 41.1992 15.861 41.2032C21.2625 41.2173 26.6639 41.2153 32.0654 41.2032C34.0736 41.1992 35.7883 39.8182 36.2687 37.8643C36.514 36.8672 36.4175 35.848 36.3853 34.8409C36.2768 31.5421 34.8917 28.8625 32.3609 26.7638C31.3799 25.9517 30.2602 25.3768 29.0501 24.9325C32.6805 21.483 32.1096 16.4575 29.3174 13.7517C26.4368 10.9595 21.952 10.8751 18.9085 13.5326C16.1967 15.9006 14.9805 21.1413 18.9387 24.9446L18.9366 24.9466Z" fill="#F3F7FF"/>
<path d="M38.0622 16.6806C38.0501 17.9169 38.0341 19.1511 38.026 20.3874C38.018 21.6096 37.638 21.9896 36.4058 21.9916C35.5253 21.9916 34.6428 21.9976 33.7623 21.9916C32.8517 21.9835 32.4356 21.5654 32.3954 20.6548C32.3009 18.538 32.3471 16.4192 32.3572 14.3005C32.3693 12.0973 30.552 10.085 28.3448 10.0428C25.4762 9.98855 22.6076 9.99056 19.7391 10.0388C17.5057 10.075 15.6784 11.9666 15.6362 14.214C15.6101 15.581 15.6503 16.9499 15.6463 18.3189C15.6422 19.3682 15.6261 20.4176 15.598 21.4669C15.5759 22.3454 15.1517 22.7836 14.2793 22.7997C13.2863 22.8198 12.2912 22.8198 11.2981 22.7997C10.4358 22.7816 9.98548 22.3353 9.97744 21.4609C9.95934 19.4165 9.95934 17.3741 9.97744 15.3297C9.98548 14.4432 10.4719 13.9949 11.3524 13.9869C11.8208 13.9829 12.2912 13.9668 12.7576 13.9929C13.0792 14.011 13.1797 13.9326 13.234 13.5848C13.6963 10.5675 15.6704 8.40651 18.539 7.74313C19.0496 7.62453 19.5722 7.57227 20.0989 7.57227C22.686 7.57629 25.2752 7.56825 27.8624 7.57629C31.1551 7.58835 33.7583 9.59455 34.6006 12.7807C34.6891 13.1164 34.8257 13.1989 35.1574 13.2029C35.9012 13.2129 36.655 13.0863 37.3908 13.3034C37.8793 13.6391 38.032 14.1216 38.028 14.6905C38.022 15.3538 38.0481 16.0172 38.0602 16.6826L38.0622 16.6806ZM34.8056 17.5791C34.8056 18.1199 34.8237 18.6626 34.7996 19.2014C34.7855 19.529 34.9102 19.6095 35.2157 19.6054C35.5012 19.6014 35.6077 19.529 35.6037 19.2275C35.5876 18.146 35.5856 17.0625 35.6037 15.981C35.6097 15.6554 35.4931 15.579 35.1856 15.5709C34.8318 15.5609 34.7936 15.7277 34.8016 16.0112C34.8177 16.5338 34.8056 17.0565 34.8056 17.5791ZM13.1938 18.4234C13.1938 17.8787 13.1757 17.3359 13.1998 16.7931C13.2139 16.4695 13.1013 16.373 12.7857 16.377C12.4982 16.3831 12.3917 16.4615 12.3957 16.763C12.4098 17.8505 12.4118 18.938 12.3957 20.0256C12.3917 20.3311 12.5003 20.3975 12.7837 20.4015C13.0933 20.4055 13.2179 20.3291 13.1998 19.9974C13.1737 19.4728 13.1938 18.9481 13.1938 18.4234Z" fill="#0156AC"/>
<path d="M18.9365 24.9486C14.9783 21.1452 16.1945 15.9046 18.9063 13.5365C21.9498 10.877 26.4346 10.9635 29.3152 13.7557C32.1074 16.4614 32.6783 21.4849 29.0479 24.9365C30.258 25.3807 31.3777 25.9557 32.3587 26.7678C34.8896 28.8665 36.2766 31.5461 36.3831 34.8449C36.4153 35.852 36.5118 36.8712 36.2666 37.8682C35.7861 39.8222 34.0714 41.2012 32.0632 41.2072C26.6617 41.2193 21.2603 41.2213 15.8588 41.2072C13.6375 41.2012 11.7379 39.3719 11.6092 37.1526C11.4685 34.7363 11.6273 32.3723 12.8093 30.1731C14.12 27.7347 16.2689 25.8672 18.9344 24.9506L18.9365 24.9486ZM18.257 27.9357C17.1554 28.4443 16.3352 29.2806 15.6156 30.2254C14.0516 32.2818 13.8104 34.6619 14.0215 37.1184C14.1079 38.1376 14.9824 38.7768 16.0257 38.7628C16.2488 38.7768 16.4719 38.805 16.6951 38.805C19.827 38.807 22.9589 38.805 26.0908 38.805C28.0046 38.805 29.9163 38.815 31.83 38.801C33.1849 38.7909 33.997 37.9647 34.0051 36.6179C34.0091 36.0188 34.0211 35.4178 33.995 34.8187C33.8241 30.8184 30.8008 27.4533 26.8326 26.9065C25.0817 26.6653 23.3107 26.7698 21.5538 26.8482C20.4682 26.8985 19.4169 27.21 18.4741 27.8011C18.3857 27.8573 18.3455 27.8815 18.255 27.9337L18.257 27.9357ZM21.8573 23.8872C21.9015 23.9193 21.9397 23.9656 21.99 23.9836C23.9339 24.6933 25.7672 24.5043 27.3593 23.1414C28.9835 21.7503 29.5343 19.9371 29.0177 17.8686C28.2458 14.7889 24.7098 13.0923 21.9739 14.4411C19.827 15.2312 18.4239 17.7399 18.8721 20.0496C19.2159 21.8247 20.1547 23.1595 21.8593 23.8872H21.8573Z" fill="#0156AC"/>
<path d="M34.8053 17.5794C34.8053 17.0568 34.8153 16.5341 34.8012 16.0115C34.7932 15.726 34.8314 15.5612 35.1852 15.5712C35.4927 15.5793 35.6093 15.6557 35.6033 15.9813C35.5852 17.0628 35.5872 18.1463 35.6033 19.2278C35.6073 19.5294 35.5008 19.6017 35.2153 19.6057C34.9078 19.6098 34.7831 19.5294 34.7992 19.2017C34.8233 18.6609 34.8053 18.1202 34.8053 17.5794Z" fill="#75A4FE"/>
<path d="M13.1917 18.4256C13.1917 18.9502 13.1736 19.4769 13.1978 19.9996C13.2138 20.3313 13.0892 20.4076 12.7816 20.4036C12.4982 20.3996 12.3896 20.3313 12.3937 20.0277C12.4097 18.9402 12.4097 17.8527 12.3937 16.7651C12.3896 16.4656 12.4962 16.3852 12.7836 16.3792C13.1013 16.3731 13.2138 16.4696 13.1978 16.7953C13.1736 17.338 13.1917 17.8828 13.1917 18.4256Z" fill="#75A4FE"/>
<path d="M18.4789 27.8054C19.4217 27.2144 20.4731 26.9008 21.5586 26.8526C23.3155 26.7722 25.0865 26.6676 26.8374 26.9109C30.8056 27.4577 33.829 30.8228 33.9998 34.8231C34.026 35.4221 34.0139 36.0232 34.0099 36.6222C34.0019 37.9691 33.1877 38.7973 31.8348 38.8053C29.9211 38.8194 28.0094 38.8094 26.0957 38.8094C22.9637 38.8094 19.8318 38.8094 16.6999 38.8094C16.4768 38.8094 16.2536 38.7812 16.0305 38.7672C15.9461 38.5199 15.8476 38.2787 15.7812 38.0274C15.4556 36.7971 15.5641 35.5568 15.6526 34.3045C15.7933 32.3244 16.5029 30.5755 17.5844 28.9472C17.8075 28.6095 18.1513 28.3522 18.2639 27.9381C18.3664 27.8798 18.4387 27.8356 18.483 27.8054H18.4789Z" fill="#75A4FE"/>
<path d="M21.9743 14.4411C24.7082 13.0923 28.2462 14.7889 29.0181 17.8686C29.5347 19.9351 28.9839 21.7503 27.3597 23.1414C25.7696 24.5043 23.9363 24.6932 21.9904 23.9836C21.9421 23.9655 21.9019 23.9193 21.8577 23.8871C21.6868 23.6459 21.725 23.469 21.6105 23.2841C20.342 21.2558 20.0787 19.1048 20.7722 16.8172C21.0355 15.9508 21.5723 15.2332 21.9723 14.4411H21.9743Z" fill="#F3F7FF"/>
<path d="M18.7154 27.6626C18.2912 28.1571 17.8047 28.6054 17.5796 28.9431C16.5001 30.5734 15.7885 32.3223 15.6478 34.3003C15.5593 35.5527 15.4508 36.793 15.7764 38.0233C15.8428 38.2745 15.9413 38.5158 16.0257 38.763C14.9824 38.7771 14.11 38.1378 14.0215 37.1187C13.8124 34.6622 14.0537 32.2821 15.6156 30.2256C16.3353 29.2808 17.3585 28.2214 18.7114 27.6626H18.7154Z" fill="#FEFEFE"/>
<path d="M21.9743 14.4415C21.5742 15.2335 21.0375 15.9511 20.7742 16.8175C20.0786 19.1052 20.344 21.2561 21.6124 23.2844C21.727 23.4673 21.8536 23.7166 21.9924 23.982C20.2897 23.2543 19.2182 21.823 18.8745 20.048C18.4262 17.7382 19.8294 15.2315 21.9763 14.4395L21.9743 14.4415Z" fill="#FEFEFE"/>
<path d="M47.7169 7.83356L46.7275 6.84424L44.7318 8.83994L45.7212 9.82926L47.7169 7.83356Z" fill="#75A4FE"/>
<path d="M40.8427 9.82916L41.832 8.83984L39.8363 6.84414L38.847 7.83346L40.8427 9.82916Z" fill="#75A4FE"/>
<path d="M46.7285 15.7144L47.7178 14.7251L45.7221 12.7294L44.7328 13.7187L46.7285 15.7144Z" fill="#75A4FE"/>
</svg>
